<svg width="153" height="192" viewBox="0 0 153 192" fill="none" xmlns="http://www.w3.org/2000/svg">
<path d="M53.0144 44.6056C55.6123 44.6056 57.7201 42.4978 57.7201 39.8998V30.7874C57.7201 19.0043 67.3206 9.40377 79.1432 9.40377C90.9636 9.40377 100.564 19.0043 100.564 30.7874V39.8998C100.564 42.4978 102.672 44.6056 105.27 44.6056C107.868 44.6056 109.976 42.4978 109.976 39.8998V32.0687C109.976 15.6172 97.6277 1.15934 81.1762 0.0670092C63.2919 -1.10009 48.3086 13.1314 48.3086 30.7874V39.8998C48.3086 42.4978 50.4164 44.6056 53.0144 44.6056Z" fill="#323232"/>
<path d="M151.991 166.962L141.639 66.2529C140.81 58.2328 134.071 52.173 126.014 52.173H32.2704C24.2149 52.173 17.4761 58.2722 16.6475 66.2529L14.0496 91.3268C12.3176 108.154 28.3184 121.293 44.4688 116.361L53.2407 113.689C63.2171 110.64 74.3606 115.684 78.2772 126.753C79.6312 130.593 79.4443 134.81 78.2398 138.725L74.3606 151.374C69.0152 168.843 82.0796 186.501 100.338 186.501H134.373C144.876 186.462 153.083 177.389 151.991 166.962Z" fill="#323232"/>
<path d="M56.553 124.456L5.84253 139.929C-1.538 142.189 -2.0634 152.429 5.05131 155.44L17.1355 160.524C23.5359 163.234 28.657 168.316 31.367 174.753L36.4487 186.84C39.4619 193.954 49.7021 193.427 51.9615 186.048L67.4348 135.336C69.5053 128.674 63.2545 122.423 56.553 124.456Z" fill="#323232"/>
</svg>
