<svg width="95" height="89" viewBox="0 0 95 89" fill="none" xmlns="http://www.w3.org/2000/svg">
<path d="M3.40625 3.40625H9.701C12.0172 3.40625 14.0383 4.96404 14.6378 7.19854L16.3772 13.7249M16.3772 13.7249C41.6772 13.0159 66.9529 15.8284 91.4782 22.0816C87.7359 33.2268 83.2896 44.0542 78.1984 54.5H27.25M16.3772 13.7249L27.25 54.5M27.25 54.5C23.6364 54.5 20.1709 55.9355 17.6157 58.4907C15.0605 61.0458 13.625 64.5114 13.625 68.125H85.1562M20.4375 81.75C20.4375 82.6534 20.0786 83.5198 19.4398 84.1586C18.801 84.7974 17.9346 85.1562 17.0312 85.1562C16.1279 85.1562 15.2615 84.7974 14.6227 84.1586C13.9839 83.5198 13.625 82.6534 13.625 81.75C13.625 80.8466 13.9839 79.9802 14.6227 79.3414C15.2615 78.7026 16.1279 78.3437 17.0312 78.3437C17.9346 78.3437 18.801 78.7026 19.4398 79.3414C20.0786 79.9802 20.4375 80.8466 20.4375 81.75ZM78.3437 81.75C78.3437 82.6534 77.9849 83.5198 77.3461 84.1586C76.7073 84.7974 75.8409 85.1562 74.9375 85.1562C74.0341 85.1562 73.1677 84.7974 72.5289 84.1586C71.8901 83.5198 71.5312 82.6534 71.5312 81.75C71.5312 80.8466 71.8901 79.9802 72.5289 79.3414C73.1677 78.7026 74.0341 78.3437 74.9375 78.3437C75.8409 78.3437 76.7073 78.7026 77.3461 79.3414C77.9849 79.9802 78.3437 80.8466 78.3437 81.75Z" stroke="black" stroke-width="6.8125" stroke-linecap="round" stroke-linejoin="round"/>
</svg>
