<svg width="184" height="134" viewBox="0 0 184 134" fill="none" xmlns="http://www.w3.org/2000/svg">
<path d="M77.622 44.122H151.976M77.622 44.122C77.622 47.1558 76.4168 50.0654 74.2716 52.2106C72.1263 54.3559 69.2168 55.561 66.183 55.561C63.1491 55.561 60.2396 54.3559 58.0943 52.2106C55.9491 50.0654 54.7439 47.1558 54.7439 44.122M77.622 44.122C77.622 41.0882 76.4168 38.1786 74.2716 36.0334C72.1263 33.8882 69.2168 32.683 66.183 32.683C63.1491 32.683 60.2396 33.8882 58.0943 36.0334C55.9491 38.1786 54.7439 41.0882 54.7439 44.122M54.7439 44.122H26.1464M123.378 89.8781H151.976M123.378 89.8781C123.378 92.9119 122.173 95.8215 120.028 97.9667C117.882 100.112 114.973 101.317 111.939 101.317C108.905 101.317 105.996 100.112 103.85 97.9667C101.705 95.8215 100.5 92.9119 100.5 89.8781M123.378 89.8781C123.378 86.8443 122.173 83.9347 120.028 81.7895C117.882 79.6443 114.973 78.4391 111.939 78.4391C108.905 78.4391 105.996 79.6443 103.85 81.7895C101.705 83.9347 100.5 86.8443 100.5 89.8781M100.5 89.8781H26.1464" stroke="black" stroke-width="11.439" stroke-linecap="round" stroke-linejoin="round"/>
</svg>
